HIERARCHY
ROOT Hips
{
	OFFSET -0.001795 -0.223333 0.028219
	CHANNELS 6 Xposition Yposition Zposition Zrotation Yrotation Xrotation 
	JOINT LeftUpLeg
	{
		OFFSET 0.069520 -0.091406 -0.006815
		CHANNELS 3 Zrotation Yrotation Xrotation
		JOINT LeftLeg
		{
			OFFSET 0.034277 -0.375199 -0.004496
			CHANNELS 3 Zrotation Yrotation Xrotation
			JOINT LeftFoot
			{
				OFFSET -0.013596 -0.397961 -0.043693
				CHANNELS 3 Zrotation Yrotation Xrotation
				JOINT LeftToe
				{
					OFFSET 0.026358 -0.055791 0.119288
					CHANNELS 3 Zrotation Yrotation Xrotation
					End Site
					{
						OFFSET 0.000000 0.000000 0.000000
					}
				}
			}
		}
	}
	JOINT RightUpLeg
	{
		OFFSET -0.067670 -0.090522 -0.004320
		CHANNELS 3 Zrotation Yrotation Xrotation
		JOINT RightLeg
		{
			OFFSET -0.038290 -0.382569 -0.008850
			CHANNELS 3 Zrotation Yrotation Xrotation
			JOINT RightFoot
			{
				OFFSET 0.015774 -0.398415 -0.042312
				CHANNELS 3 Zrotation Yrotation Xrotation
				JOINT RightToe
				{
					OFFSET -0.025372 -0.048144 0.123348
					CHANNELS 3 Zrotation Yrotation Xrotation
					End Site
					{
						OFFSET 0.000000 0.000000 0.000000
					}
				}
			}
		}
	}
	JOINT Spine
	{
		OFFSET -0.002533 0.108963 -0.026696
		CHANNELS 3 Zrotation Yrotation Xrotation
		JOINT Spine1
		{
			OFFSET 0.005487 0.135180 0.001092
			CHANNELS 3 Zrotation Yrotation Xrotation
			JOINT Spine2
			{
				OFFSET 0.001457 0.052922 0.025425
				CHANNELS 3 Zrotation Yrotation Xrotation
				JOINT Neck
				{
					OFFSET -0.002778 0.213870 -0.042857
					CHANNELS 3 Zrotation Yrotation Xrotation
					JOINT Head
					{
						OFFSET 0.005152 0.064970 0.051349
						CHANNELS 3 Zrotation Yrotation Xrotation
						End Site
						{
							OFFSET 0.000000 0.000000 0.000000
						}
					}
				}
				JOINT LeftShoulder
				{
					OFFSET 0.078845 0.121749 -0.034090
					CHANNELS 3 Zrotation Yrotation Xrotation
					JOINT LeftArm
					{
						OFFSET 0.090977 0.030469 -0.008868
						CHANNELS 3 Zrotation Yrotation Xrotation
						JOINT LeftForeArm
						{
							OFFSET 0.259612 -0.012772 -0.027456
							CHANNELS 3 Zrotation Yrotation Xrotation
							JOINT LeftHand
							{
								OFFSET 0.249234 0.008986 -0.001171
								CHANNELS 3 Zrotation Yrotation Xrotation
								End Site
								{
									OFFSET 0.000000 0.000000 0.000000
								}
							}
						}
					}
				}
				JOINT RightShoulder
				{
					OFFSET -0.081759 0.118833 -0.038615
					CHANNELS 3 Zrotation Yrotation Xrotation
					JOINT RightArm
					{
						OFFSET -0.096012 0.032551 -0.009143
						CHANNELS 3 Zrotation Yrotation Xrotation
						JOINT RightForeArm
						{
							OFFSET -0.253742 -0.013329 -0.021401
							CHANNELS 3 Zrotation Yrotation Xrotation
							JOINT RightHand
							{
								OFFSET -0.255298 0.007772 -0.005559
								CHANNELS 3 Zrotation Yrotation Xrotation
								End Site
								{
									OFFSET 0.000000 0.000000 0.000000
								}
							}
						}
					}
				}
			}
		}
	}
}
MOTION
Frames: 14
Frame Time: 0.050000
0.007072 0.951701 -0.073107 -6.635312 -13.856204 19.027857 12.434242 1.039823 -23.208884 -2.940633 0.406892 2.231746 9.550776 17.953107 19.777693 0.000000 0.000000 0.000000 1.662222 3.244703 -24.046599 1.534980 0.015159 3.346549 -1.949613 -12.083135 15.896202 0.000000 0.000000 0.000000 -11.293977 6.126199 43.022450 7.218821 -1.435599 -19.857979 -2.122164 -5.776031 28.709090 -13.307716 7.717561 -22.641433 0.000000 0.000000 0.000000 -5.456242 -16.391529 8.109723 -2.039866 -49.773620 -3.083700 49.711118 -33.184046 -12.039360 0.000000 0.000000 0.000000 1.198458 16.718097 5.593023 64.497661 24.267908 2.947634 6.150992 66.329359 6.000539 0.000000 0.000000 0.000000 
0.007167 0.951148 -0.074311 -6.754264 -14.154296 19.088349 12.566618 1.095205 -23.172236 -2.967948 0.413225 2.136496 9.734955 18.166813 19.765838 0.000000 0.000000 0.000000 1.898131 3.388785 -24.593098 1.558450 0.036051 3.882355 -2.307866 -12.805534 16.082690 0.000000 0.000000 0.000000 -11.149491 6.122846 43.066117 7.077686 -1.407240 -19.856524 -1.661412 -5.600790 28.750221 -12.697909 7.267384 -23.193121 0.000000 0.000000 0.000000 -4.760534 -15.776898 7.657418 -3.838030 -49.057028 -2.396129 52.648203 -33.761795 -13.049318 0.000000 0.000000 0.000000 1.072979 17.010319 5.698149 64.719626 25.034674 3.418276 3.656572 65.687643 4.385106 0.000000 0.000000 0.000000 
0.007587 0.950842 -0.075040 -6.821377 -14.543155 19.065681 12.500847 1.133326 -23.281520 -2.822405 0.396957 2.507987 9.949152 18.409648 19.754390 0.000000 0.000000 0.000000 2.006545 3.494351 -24.978228 1.682452 0.052742 4.534117 -2.577447 -13.258906 15.843769 0.000000 0.000000 0.000000 -10.638417 5.896039 42.832104 6.932395 -1.384355 -19.828960 -1.127653 -4.805719 28.651069 -11.918905 6.926375 -22.662295 0.000000 0.000000 0.000000 -5.581946 -15.401328 7.633816 -4.984502 -48.335906 -2.135396 55.319264 -35.477261 -14.681335 0.000000 0.000000 0.000000 1.325301 17.581420 5.938536 64.639368 25.885614 4.054224 0.588607 65.367896 2.593166 0.000000 0.000000 0.000000 
0.008265 0.950170 -0.075439 -6.720382 -14.466924 19.008790 12.728331 1.170291 -23.213299 -3.458199 0.496918 2.338226 9.930758 18.412288 19.563785 0.000000 0.000000 0.000000 1.839428 3.511266 -25.211403 1.781501 0.059685 4.965421 -2.789068 -13.534245 15.607261 0.000000 0.000000 0.000000 -10.115822 5.613330 42.845800 6.804054 -1.351441 -19.896071 -0.547030 -4.008007 28.643045 -10.873853 6.444845 -22.106764 0.000000 0.000000 0.000000 -5.729254 -15.041998 7.418570 -7.370203 -47.335434 -1.447243 59.731659 -37.681881 -17.295117 0.000000 0.000000 0.000000 0.139357 17.607797 5.980281 65.448112 26.603745 4.673989 -4.438163 65.765583 -0.319558 0.000000 0.000000 0.000000 
0.008985 0.950192 -0.075806 -6.573331 -14.608065 19.035057 12.679284 1.159535 -23.124722 -3.723226 0.536447 2.046893 9.992368 18.477202 19.672857 0.000000 0.000000 0.000000 1.756831 3.550740 -25.462229 1.798794 0.070211 5.239475 -3.102156 -14.047831 15.491411 0.000000 0.000000 0.000000 -9.718781 5.418276 42.728067 6.958800 -1.355348 -20.281430 -0.191193 -3.141516 28.490872 -9.875445 5.955089 -21.821097 0.000000 0.000000 0.000000 -6.082775 -14.319984 7.098703 -10.029690 -46.309757 -0.756440 63.668698 -40.351072 -20.223735 0.000000 0.000000 0.000000 0.101483 17.596274 6.016333 64.955410 26.377093 4.672994 -8.409319 66.764627 -2.745557 0.000000 0.000000 0.000000 
0.009740 0.950010 -0.076499 -6.554242 -14.824064 19.066398 12.745137 1.200741 -23.169387 -3.968385 0.578513 2.057770 10.108805 18.607209 19.705329 0.000000 0.000000 0.000000 1.685969 3.613723 -25.793194 1.844960 0.088552 5.740184 -3.128827 -14.059135 15.225012 0.000000 0.000000 0.000000 -9.432478 5.302181 42.625888 7.013750 -1.352813 -20.499650 0.052824 -2.413473 28.270029 -9.094309 5.551950 -21.829068 0.000000 0.000000 0.000000 -6.751876 -13.797465 6.926333 -11.686519 -45.418555 -0.377307 66.511707 -42.466769 -22.729184 0.000000 0.000000 0.000000 -0.199202 17.130934 5.879569 65.117873 26.237457 4.751198 -10.363119 69.164436 -4.059343 0.000000 0.000000 0.000000 
0.010514 0.950368 -0.077596 -6.432385 -15.310395 19.074656 12.767203 1.242651 -23.071668 -4.350230 0.642597 1.878662 10.327394 18.825698 20.031233 0.000000 0.000000 0.000000 1.485019 3.639990 -25.972975 1.945674 0.097259 6.106276 -2.974442 -13.700177 14.655966 0.000000 0.000000 0.000000 -9.325572 5.312146 42.460963 6.844309 -1.293322 -20.796289 -0.223632 -2.721874 28.238251 -8.924312 5.399336 -21.516735 0.000000 0.000000 0.000000 -6.720680 -13.640766 6.908367 -11.693610 -44.237836 -0.404494 65.942981 -41.788389 -22.005113 0.000000 0.000000 0.000000 0.100016 17.014422 5.817868 64.555395 25.911285 4.388852 -9.899377 72.217611 -4.198423 0.000000 0.000000 0.000000 
0.011510 0.950625 -0.078956 -6.360408 -15.298362 19.058076 12.566007 1.217204 -23.296070 -4.196269 0.620797 2.061865 10.295184 18.775655 20.123906 0.000000 0.000000 0.000000 1.374126 3.666347 -26.203434 1.994581 0.112613 6.576884 -3.040276 -13.699308 14.282427 0.000000 0.000000 0.000000 -9.029469 5.214488 42.774362 6.879193 -1.258110 -21.266095 -0.463208 -3.436274 28.041400 -8.889877 5.258902 -21.785699 0.000000 0.000000 0.000000 -8.132989 -14.095930 7.510762 -10.006922 -43.433454 -0.948837 62.190977 -40.436237 -19.733861 0.000000 0.000000 0.000000 0.262870 16.592262 5.633220 63.848472 25.560747 3.979822 -6.142623 76.553686 -1.965236 0.000000 0.000000 0.000000 
0.012506 0.950826 -0.080300 -6.516411 -15.290642 19.112582 12.639631 1.259980 -23.561748 -4.109531 0.611816 2.333689 10.285818 18.758677 20.158920 0.000000 0.000000 0.000000 1.317974 3.642530 -26.116887 1.893068 0.122565 6.525943 -2.389616 -12.478204 13.988740 0.000000 0.000000 0.000000 -8.810258 5.146822 43.042119 7.108640 -1.277741 -21.593848 -0.975778 -4.431268 28.259871 -9.409681 5.444757 -21.828765 0.000000 0.000000 0.000000 -9.241519 -14.802055 8.242018 -8.093115 -43.093672 -1.491737 55.915437 -37.822673 -16.079516 0.000000 0.000000 0.000000 0.880950 16.424977 5.514404 62.987227 25.329964 3.556666 -3.623751 80.597535 -0.430945 0.000000 0.000000 0.000000 
0.013498 0.950653 -0.081289 -6.566484 -15.173142 19.192327 12.734083 1.283852 -23.728291 -4.240854 0.631436 2.306181 10.235213 18.709486 20.107684 0.000000 0.000000 0.000000 1.443154 3.685073 -26.275198 1.786820 0.135321 6.545653 -2.581320 -12.824918 14.061278 0.000000 0.000000 0.000000 -8.297538 4.912505 43.329490 6.813116 -1.175755 -21.970802 -1.469835 -5.989191 28.208536 -9.737898 5.478903 -21.381022 0.000000 0.000000 0.000000 -9.727645 -15.720397 9.038952 -7.079255 -42.552741 -1.705133 50.396447 -35.790084 -13.292756 0.000000 0.000000 0.000000 1.776151 16.480962 5.406716 61.927334 24.284176 2.695062 9.468157 83.884063 10.429978 0.000000 0.000000 0.000000 
0.014497 0.950199 -0.081853 -6.827403 -15.159761 19.516883 12.882814 1.341362 -23.956853 -4.103133 0.605801 2.152884 10.287059 18.780457 20.014277 0.000000 0.000000 0.000000 1.789329 3.767780 -26.416816 1.391262 0.177503 6.414503 -2.330921 -12.336557 13.832960 0.000000 0.000000 0.000000 -8.020904 4.805174 43.450002 6.596550 -1.099268 -22.258850 -1.656529 -7.132546 28.415877 -9.816812 5.264820 -22.303776 0.000000 0.000000 0.000000 -9.751444 -15.812427 9.292951 -8.164032 -42.809538 -1.360100 46.902595 -35.697147 -12.023052 0.000000 0.000000 0.000000 1.946511 15.987201 5.123176 61.545217 23.649529 2.131312 24.241376 85.738302 23.842640 0.000000 0.000000 0.000000 
0.015652 0.950054 -0.081964 -6.939338 -15.570347 19.563304 13.112668 1.472595 -24.284709 -4.502508 0.694158 2.862107 10.511186 19.043578 19.984966 0.000000 0.000000 0.000000 1.763213 3.821161 -26.605138 1.458656 0.174710 6.455931 -2.200284 -12.274344 14.155242 0.000000 0.000000 0.000000 -8.226891 4.997553 43.506259 6.553105 -1.103437 -22.146535 -1.975785 -7.769692 28.497165 -10.113267 5.293319 -22.780422 0.000000 0.000000 0.000000 -9.596134 -15.352009 9.131039 -9.373675 -42.244608 -1.011511 46.210479 -36.173727 -11.887550 0.000000 0.000000 0.000000 2.476610 15.854412 4.978209 60.122714 23.369285 1.823470 24.817014 86.658696 24.241652 0.000000 0.000000 0.000000 
0.016990 0.949770 -0.081564 -7.032966 -15.614342 19.552114 13.438681 1.598282 -24.651546 -4.978293 0.819371 4.141899 9.924042 18.331443 18.460511 0.000000 0.000000 0.000000 2.057878 3.887819 -26.695411 1.105536 0.234016 6.745743 -2.364991 -12.536624 14.020200 0.000000 0.000000 0.000000 -7.906973 4.863014 43.615608 5.988252 -0.998575 -21.986901 -1.899434 -8.251257 28.380470 -9.846306 4.983143 -23.457995 0.000000 0.000000 0.000000 -9.253871 -14.982749 8.945704 -11.256148 -41.619123 -0.528004 47.026872 -37.926358 -12.648536 0.000000 0.000000 0.000000 2.813217 15.663210 4.832628 58.916830 22.511313 1.330397 25.768097 86.131681 24.437743 0.000000 0.000000 0.000000 
0.018691 0.949465 -0.080825 -6.905652 -15.675883 19.307015 13.518713 1.606415 -24.490938 -5.546691 0.958909 4.916902 9.407238 17.711268 16.728880 0.000000 0.000000 0.000000 2.013907 3.833759 -26.454551 1.422008 0.194095 6.729543 -3.175309 -13.873764 13.827618 0.000000 0.000000 0.000000 -7.998899 4.939259 43.781492 6.127009 -1.038003 -21.908214 -2.162293 -8.391878 28.704740 -9.745614 4.780018 -24.965129 0.000000 0.000000 0.000000 -9.121399 -14.534089 8.705578 -12.048775 -41.251890 -0.357977 48.587932 -37.994827 -13.097967 0.000000 0.000000 0.000000 2.457500 15.295876 4.711262 58.356652 22.321290 1.124876 12.001767 84.744058 11.122011 0.000000 0.000000 0.000000 
